<?xml version="1.0" encoding="utf-8"?>
<!-- Generator: Adobe Illustrator 23.0.6, SVG Export Plug-In . SVG Version: 6.00 Build 0)  -->
<svg version="1.1" id="Слой_1" xmlns="http://www.w3.org/2000/svg" xmlns:xlink="http://www.w3.org/1999/xlink" x="0px" y="0px"
	 viewBox="0 0 200 200" style="enable-background:new 0 0 200 200;" xml:space="preserve">
<style type="text/css">
	.st0{fill-rule:evenodd;clip-rule:evenodd;fill:#B2B2B2;}
</style>
<g>
	<polygon class="st0" points="67.1,52.1 61,52.1 61,42.6 67.1,42.6 67.1,52.1 	"/>
	<polygon class="st0" points="79.3,52.1 73.2,52.1 73.2,42.6 79.3,42.6 79.3,52.1 	"/>
	<polygon class="st0" points="91.5,52.1 85.4,52.1 85.4,42.6 91.5,42.6 91.5,52.1 	"/>
	<polygon class="st0" points="103.7,52.1 97.6,52.1 97.6,42.6 103.7,42.6 103.7,52.1 	"/>
	<polygon class="st0" points="115.8,52.1 109.8,52.1 109.8,42.6 115.8,42.6 115.8,52.1 	"/>
	<polygon class="st0" points="128,52.1 121.9,52.1 121.9,42.6 128,42.6 128,52.1 	"/>
	<polygon class="st0" points="140.2,52.1 134.1,52.1 134.1,42.6 140.2,42.6 140.2,52.1 	"/>
	<polygon class="st0" points="67.1,156.6 61,156.6 61,147.1 67.1,147.1 67.1,156.6 	"/>
	<polygon class="st0" points="79.3,156.6 73.2,156.6 73.2,147.1 79.3,147.1 79.3,156.6 	"/>
	<polygon class="st0" points="91.5,156.6 85.4,156.6 85.4,147.1 91.5,147.1 91.5,156.6 	"/>
	<polygon class="st0" points="103.7,156.6 97.6,156.6 97.6,147.1 103.7,147.1 103.7,156.6 	"/>
	<polygon class="st0" points="115.8,156.6 109.8,156.6 109.8,147.1 115.8,147.1 115.8,156.6 	"/>
	<polygon class="st0" points="128,156.6 121.9,156.6 121.9,147.1 128,147.1 128,156.6 	"/>
	<polygon class="st0" points="140.2,156.6 134.1,156.6 134.1,147.1 140.2,147.1 140.2,156.6 	"/>
	<polygon class="st0" points="155.4,64.8 146.3,64.8 146.3,58.4 155.4,58.4 155.4,64.8 	"/>
	<polygon class="st0" points="155.4,77.4 146.3,77.4 146.3,71.1 155.4,71.1 155.4,77.4 	"/>
	<polygon class="st0" points="155.4,90.1 146.3,90.1 146.3,83.8 155.4,83.8 155.4,90.1 	"/>
	<polygon class="st0" points="155.4,102.8 146.3,102.8 146.3,96.4 155.4,96.4 155.4,102.8 	"/>
	<polygon class="st0" points="155.4,115.4 146.3,115.4 146.3,109.1 155.4,109.1 155.4,115.4 	"/>
	<polygon class="st0" points="155.4,128.1 146.3,128.1 146.3,121.8 155.4,121.8 155.4,128.1 	"/>
	<polygon class="st0" points="155.4,140.8 146.3,140.8 146.3,134.4 155.4,134.4 155.4,140.8 	"/>
	<polygon class="st0" points="55,64.8 45.8,64.8 45.8,58.4 55,58.4 55,64.8 	"/>
	<polygon class="st0" points="55,77.4 45.8,77.4 45.8,71.1 55,71.1 55,77.4 	"/>
	<polygon class="st0" points="55,90.1 45.8,90.1 45.8,83.8 55,83.8 55,90.1 	"/>
	<polygon class="st0" points="55,102.8 45.8,102.8 45.8,96.4 55,96.4 55,102.8 	"/>
	<polygon class="st0" points="55,115.4 45.8,115.4 45.8,109.1 55,109.1 55,115.4 	"/>
	<polygon class="st0" points="55,128.1 45.8,128.1 45.8,121.8 55,121.8 55,128.1 	"/>
	<polygon class="st0" points="55,140.8 45.8,140.8 45.8,134.4 55,134.4 55,140.8 	"/>
	<path class="st0" d="M179.8,19.9v33.7l-7,4.9h-11.3v6.3h13.1l11.3-7.8V19.9c3.5-1.3,6.1-4.8,6.1-8.9c0-5.2-4.1-9.5-9.1-9.5
		c-5,0-9.1,4.3-9.1,9.5C173.7,15.1,176.2,18.6,179.8,19.9L179.8,19.9z M182.8,7.8c1.7,0,3,1.4,3,3.2c0,1.7-1.4,3.2-3,3.2
		c-1.7,0-3-1.4-3-3.2C179.8,9.2,181.1,7.8,182.8,7.8L182.8,7.8z"/>
	<polygon class="st0" points="195,77.4 161.5,77.4 161.5,71.1 195,71.1 195,77.4 	"/>
	<polygon class="st0" points="195,90.1 161.5,90.1 161.5,83.8 195,83.8 195,90.1 	"/>
	<polygon class="st0" points="181.4,96.4 161.5,96.4 161.5,102.8 178.1,102.8 184.2,112.3 195,112.3 195,105.9 187.5,105.9 	"/>
	<polygon class="st0" points="173.7,115.4 161.5,115.4 161.5,109.1 173.7,109.1 173.7,115.4 	"/>
	<polygon class="st0" points="195,128.1 161.5,128.1 161.5,121.8 195,121.8 195,128.1 	"/>
	<path class="st0" d="M171.9,134.4h-10.4v6.3h7.9l7.3,7.6v5.6c-3.5,1.3-6.1,4.8-6.1,8.9c0,5.2,4.1,9.5,9.1,9.5c5,0,9.1-4.3,9.1-9.5
		c0-4.1-2.6-7.6-6.1-8.9v-8.2L171.9,134.4L171.9,134.4z M179.8,166.1c-1.7,0-3-1.4-3-3.2c0-1.7,1.4-3.2,3-3.2c1.7,0,3,1.4,3,3.2
		C182.8,164.7,181.5,166.1,179.8,166.1L179.8,166.1z"/>
	<polygon class="st0" points="140.2,171.1 140.2,162.9 134.1,162.9 134.1,173.7 145,185.1 195,185.1 195,178.7 147.5,178.7 	"/>
	<polygon class="st0" points="128,183.8 128,162.9 121.9,162.9 121.9,186.4 132.9,197.7 195,197.7 195,191.4 135.4,191.4 	"/>
	<polygon class="st0" points="115.8,197.7 109.8,197.7 109.8,162.9 115.8,162.9 115.8,197.7 	"/>
	<polygon class="st0" points="97.6,166.1 91.5,166.1 91.5,162.9 85.4,162.9 85.4,172.4 103.7,172.4 103.7,162.9 97.6,162.9 	"/>
	<path class="st0" d="M94.5,178.7c-3.8,0-7,2.4-8.4,5.8l-6.8-7.1v-14.5h-6.1v17.1l10.9,11.4H86c1.3,3.7,4.6,6.3,8.6,6.3
		c5,0,9.1-4.3,9.1-9.5C103.7,183,99.6,178.7,94.5,178.7L94.5,178.7z M94.5,191.4c-1.7,0-3-1.4-3-3.2c0-1.7,1.4-3.2,3-3.2
		c1.7,0,3,1.4,3,3.2C97.6,190,96.2,191.4,94.5,191.4L94.5,191.4z"/>
	<path class="st0" d="M61,177.4l-7.3,7.6H23.9c-0.9-2.7-2.9-4.8-5.5-5.7v-43.6l7.4-7.6h14v-6.3H23.2l-10.9,11.4v46.2
		c-3.5,1.3-6.1,4.8-6.1,8.9c0,5.2,4.1,9.5,9.1,9.5c4,0,7.3-2.7,8.6-6.3h32.3l10.9-11.4v-17.1H61V177.4L61,177.4z M15.4,191.4
		c-1.7,0-3-1.4-3-3.2c0-1.7,1.4-3.2,3-3.2s3,1.4,3,3.2C18.4,190,17.1,191.4,15.4,191.4L15.4,191.4z"/>
	<path class="st0" d="M37.9,140.8h1.8v-6.3h-4.3l-10.9,11.4v9l10.9,11.4h1.8c1.3,3.7,4.6,6.3,8.6,6.3c5,0,9.1-4.3,9.1-9.5
		c0-5.2-4.1-9.5-9.1-9.5c-3.8,0-7,2.4-8.4,5.8l-6.8-7.1v-3.7L37.9,140.8L37.9,140.8z M45.8,159.7c1.7,0,3,1.4,3,3.2
		c0,1.7-1.4,3.2-3,3.2c-1.7,0-3-1.4-3-3.2C42.8,161.2,44.1,159.7,45.8,159.7L45.8,159.7z"/>
	<polygon class="st0" points="39.7,115.4 6.2,115.4 6.2,109.1 39.7,109.1 39.7,115.4 	"/>
	<path class="st0" d="M12.3,19.9v71.5l10.9,11.4h16.5v-6.3h-14l-7.4-7.6V72.4l4.8,5h16.5v-6.3h-14l-7.4-7.6V19.9
		c3.5-1.3,6.1-4.8,6.1-8.9c0-5.2-4.1-9.5-9.1-9.5c-5,0-9.1,4.3-9.1,9.5C6.2,15.1,8.8,18.6,12.3,19.9L12.3,19.9z M15.4,7.8
		c1.7,0,3,1.4,3,3.2c0,1.7-1.4,3.2-3,3.2s-3-1.4-3-3.2C12.3,9.2,13.7,7.8,15.4,7.8L15.4,7.8z"/>
	<polygon class="st0" points="39.7,90.1 27.6,90.1 27.6,83.8 39.7,83.8 39.7,90.1 	"/>
	<path class="st0" d="M24.5,53.4l10.9,11.4h4.3v-6.3h-1.8l-7.4-7.6v-29l7.4-7.6h35.3v22.2h6.1V14.1h6.1v22.2h6.1V14.1h6.1v22.2h6.1
		v-9.5l6.1,4.8v4.7h6.1v-7.9l-12.2-9.5v-4.8h3.6c1.3,3.7,4.6,6.3,8.6,6.3c5,0,9.1-4.3,9.1-9.5c0-5.2-4.1-9.5-9.1-9.5
		c-4,0-7.3,2.7-8.6,6.3H35.4L24.5,19.1V53.4L24.5,53.4z M115.8,7.8c1.7,0,3,1.4,3,3.2c0,1.7-1.4,3.2-3,3.2c-1.7,0-3-1.4-3-3.2
		C112.8,9.2,114.2,7.8,115.8,7.8L115.8,7.8z"/>
	<path class="st0" d="M67.1,26.8H54.4c-1.3-3.7-4.6-6.3-8.6-6.3c-5,0-9.1,4.3-9.1,9.5c0,5.2,4.1,9.5,9.1,9.5c4,0,7.3-2.7,8.6-6.3H61
		v3.2h6.1V26.8L67.1,26.8z M45.8,33.1c-1.7,0-3-1.4-3-3.2c0-1.7,1.4-3.2,3-3.2c1.7,0,3,1.4,3,3.2C48.9,31.7,47.5,33.1,45.8,33.1
		L45.8,33.1z"/>
	<path class="st0" d="M134.1,36.3h6.1v-3.2H156c1.3,3.7,4.6,6.3,8.6,6.3c5,0,9.1-4.3,9.1-9.5c0-5.2-4.1-9.5-9.1-9.5
		c-4,0-7.3,2.7-8.6,6.3h-21.9V36.3L134.1,36.3z M164.6,26.8c1.7,0,3,1.4,3,3.2c0,1.7-1.4,3.2-3,3.2c-1.7,0-3-1.4-3-3.2
		C161.5,28.2,162.9,26.8,164.6,26.8L164.6,26.8z"/>
	<polygon class="st0" points="121.9,36.3 128,36.3 128,28.1 137.2,18.6 137.2,1.5 131.1,1.5 131.1,16 121.9,25.5 	"/>
	<path class="st0" d="M109.8,109.1c10.1,0,18.3-8.5,18.3-19c0-10.5-8.2-19-18.3-19c-10.1,0-18.3,8.5-18.3,19
		C91.5,100.6,99.7,109.1,109.8,109.1L109.8,109.1z M109.8,77.4c6.7,0,12.2,5.7,12.2,12.7c0,7-5.5,12.7-12.2,12.7
		c-6.7,0-12.2-5.7-12.2-12.7C97.6,83.1,103,77.4,109.8,77.4L109.8,77.4z"/>
	<path class="st0" d="M98.1,119.3c3.6,1.6,7.5,2.4,11.6,2.4c16.8,0,30.4-14.2,30.4-31.7c0-17.5-13.7-31.7-30.4-31.7
		c-16.8,0-30.4,14.2-30.4,31.7c0,4.3,0.8,8.4,2.3,12.1l-17.2,17.9c-2.2,2.3-3.4,5.3-3.4,8.6c0,6.7,5.2,12.1,11.7,12.1
		c3.1,0,6-1.3,8.2-3.5L98.1,119.3L98.1,119.3z M109.8,64.8c13.4,0,24.4,11.4,24.4,25.3c0,14-10.9,25.3-24.4,25.3
		c-13.4,0-24.4-11.4-24.4-25.3C85.4,76.1,96.3,64.8,109.8,64.8L109.8,64.8z M72.7,134.4c-3.1,0-5.6-2.6-5.6-5.8c0-1.5,0.6-3,1.6-4.1
		L84.7,108c2.1,3.2,4.8,6,7.9,8.2l-15.9,16.5C75.6,133.8,74.2,134.4,72.7,134.4L72.7,134.4z"/>
</g>
</svg>
